<svg xmlns="http://www.w3.org/2000/svg" viewBox="0 0 63.779 63.78"><path fill="#FDD23E" d="M31.384 38.359c-.102-.071-.211-.151-.313-.223a88.277 88.277 0 01-1.458-1.038c-.39-.282-.784-.582-1.181-.88-.356-.269-.713-.533-1.067-.81-.505-.396-1.013-.819-1.523-1.242-.258-.215-.519-.42-.775-.641a52.924 52.924 0 01-2.268-2.066c-.032-.031-.065-.069-.096-.1a26.22 26.22 0 01-1.046-1.084l-.003-.003-.014-.016a32.435 32.435 0 01-.927-1.066c-.152-.182-.305-.374-.457-.564a37.898 37.898 0 01-1.061-1.373 52.9 52.9 0 01-.502-.699c-.174-.245-.348-.484-.521-.738l-.002-.002-.016.003-.584-.894c-.107-.165-.224-.355-.336-.53a.008.008 0 00-.002-.004l-.146-.23-.002-.003a53.01 53.01 0 01-1.007-1.673l-.115-.203a57.93 57.93 0 01-.97-1.77l-.001-.002-.075-.148-.002-.003c-.183-.352-.363-.73-.545-1.101a52.044 52.044 0 01-1.674-3.784c-.094-.24-.189-.478-.282-.723v-.001c-.12-.319-.241-.637-.356-.96-.079-.226-.154-.458-.23-.689a47.735 47.735 0 01-.505-1.569v-.003c-.014-.048-.031-.093-.045-.141l-.395-1.455-.001-.001c-.143-.561-.26-1.128-.379-1.694C4.052 14.072 0 22.507 0 31.89c0 14.599 9.814 26.897 23.202 30.683.144-3.884.931-8.718 2.791-13.349 1.461-3.636 3.456-7.309 5.391-10.865"/><path fill="#1BB8CE" d="M34.645.126c.519.949 1.02 1.965 1.498 3.037v.001l.013-.004.204.497c.201.462.395.931.584 1.412l.031.076a49.31 49.31 0 011.521 4.517c.005.021.012.042.018.062a45.432 45.432 0 011.354 6.602l.002.01v.001c.097.763.171 1.528.226 2.296l.006.073.082 1.21-.008.002a33.029 33.029 0 01-.242 5.334 24.58 24.58 0 01-.269 1.781c.177-.914.022-.114.003-.008-.083.43-.193.873-.324 1.327-.031.109-.074.224-.107.335-.107.349-.221.701-.353 1.064-.049.133-.104.271-.157.406-.131.348-.27.7-.422 1.06-.063.152-.134.307-.201.46-.151.348-.309.7-.477 1.057-.081.175-.166.352-.25.527a70.5 70.5 0 01-.811 1.635 93.344 93.344 0 01-.864 1.662l-.463.865c.834.56 1.667 1.121 2.503 1.674.994.659 1.988 1.317 2.979 1.987.322.218.663.455 1.019.712.473.342.969.716 1.478 1.112.492.383.999.791 1.512 1.213.004-.002.013 0 .023.008l.025.017.589.494c.11.093.222.194.333.288a80.288 80.288 0 011.064.919l.305.269a86.078 86.078 0 012.703 2.504l.037.037a78.828 78.828 0 013.527 3.64 61.198 61.198 0 011.506 1.722c5.531-5.734 8.938-13.531 8.938-22.128C63.779 15.206 50.966 1.523 34.645.126"/><path fill="#FDD23E" d="M31.384 38.359a94.616 94.616 0 01-3.106-2.258c-.305-.229-.61-.456-.913-.692a61.407 61.407 0 01-4.566-3.949c-.185-.179-.377-.391-.566-.586-.192-.198-.381-.383-.576-.598l-.003-.003-.014-.016a32.59 32.59 0 01-.927-1.066c-.041-.049-.081-.101-.122-.151a41.356 41.356 0 01-1.295-1.653l-.101-.133v-.001a46.757 46.757 0 01-.502-.697v-.001c-.174-.245-.348-.484-.521-.738l-.002-.002-.016.003-.584-.894c-.107-.165-.224-.355-.336-.53l-.15-.237a59.168 59.168 0 01-.496-.806 59.622 59.622 0 01-.447-.758l-.064-.109-.001-.001a58.4 58.4 0 01-1.084-1.972l-.001-.002-.025-.049a52.749 52.749 0 01-1.112-2.267c-.116-.25-.227-.514-.341-.771l-.025-.056c-.102-.232-.206-.456-.307-.694-.092-.217-.184-.432-.273-.65-.073-.179-.142-.366-.213-.549-.094-.24-.189-.478-.282-.723-.078-.207-.154-.415-.231-.623-.041-.113-.085-.224-.125-.338-.079-.226-.154-.458-.23-.689v-.001c-.027-.084-.056-.166-.084-.25a46.086 46.086 0 01-.421-1.321c-.014-.048-.031-.093-.045-.141l-.395-1.455-.001-.001c-.143-.561-.26-1.128-.379-1.694C4.052 14.072 0 22.507 0 31.89c0 14.599 9.814 26.897 23.202 30.683.144-3.884.931-8.718 2.791-13.349 1.461-3.636 3.456-7.309 5.391-10.865"/><path fill="#3B82C5" d="M28.223 51.67a37.511 37.511 0 00-1.296 4.65l20.799-5.572a81.757 81.757 0 00-3.641-3.329l-7.24 1.94-8.622 2.311zM28.223 51.67c.158-.45.162-.461 0 0M35.701 10.637a46.427 46.427 0 00-1.303-3.947L14.555 12a45.391 45.391 0 001.498 3.902l11.034-2.957 8.614-2.308zM16.053 15.901l.007.016-.007-.016M37.061 17.702a39.772 39.772 0 00-.646-4.13l-8.545 2.289-10.507 2.816a51.081 51.081 0 002.104 3.74l17.594-4.715zM52.691 56.049a63.472 63.472 0 00-2.59-2.887l-23.707 6.353a36.223 36.223 0 00-.267 3.735c1.869.341 3.793.529 5.762.529a31.756 31.756 0 0020.829-7.752l-.027.022zM31.185.018l.006.01c.234-.005.463-.028.699-.028-.237 0-.47.013-.705.018"/><path fill="#3B82C5" d="M31.191.028a31.741 31.741 0 00-18.102 6.108 36.19 36.19 0 00.614 3.04l19.55-5.238a36.807 36.807 0 00-2.062-3.91M39.072 43.526a383.645 383.645 0 00-2.974-1.981c-.751-.497-1.51-1.01-2.267-1.518l-.006.013-.002-.001c-1.458 2.679-2.929 5.419-4.158 8.119l6.398-1.714 5.133-1.376a53.869 53.869 0 00-1.127-.843c-.343-.25-.677-.484-.997-.699M30.749 26.748l8.25-2.211-2.017.54a29.5 29.5 0 00.252-4.371l-16.04 4.298a38.806 38.806 0 001.819 2.351c.06.072.119.137.179.206.242.283.483.561.722.82.056.06.109.111.165.17l-.013-.013 6.683-1.79zM32.791 35.758l.103-.193c.261-.488.511-.967.756-1.438l.264-.507c.307-.598.6-1.184.87-1.752.024-.048.044-.094.067-.143.246-.521.474-1.026.685-1.518.078-.182.146-.357.218-.536.143-.351.276-.697.395-1.031a5.97 5.97 0 00.08-.236l-4.698 1.259-4.888 1.311c.361.317.372.339.171.169 2.022 1.761 4.076 3.285 5.977 4.615"/><path fill="#C9CACA" d="M42.72 44.661l2.01-.539a61.525 61.525 0 00-2.991-2.324 30.365 30.365 0 00-1.019-.713c-.99-.67-1.983-1.328-2.978-1.986-.836-.555-1.67-1.114-2.502-1.674l-.127.236-.316.586c-.064.121-.128.238-.194.359l-.771 1.421c.757.509 1.515 1.021 2.267 1.517.992.658 1.985 1.314 2.974 1.982.319.215.653.449.998.699.362.262.74.546 1.127.843l1.522-.407zM36.845 49.36l-.009-.034-.006-.021-.004-.014-.754-2.812-.008-.035-6.398 1.714c-.33.724-.652 1.448-.94 2.164-.18.448-.345.899-.504 1.349l8.623-2.311zM34.408 6.688c.004.016 0 .003-.004-.007l-.008.002a46.927 46.927 0 011.305 3.953l.002-.001 1.34-.358 1.504-.403c.354 1.264-.491-1.94-1.543-4.63l.261.678-2.857.766zM50.101 53.163a63.5 63.5 0 012.591 2.887 31.718 31.718 0 002.148-2.031 58.003 58.003 0 00-1.508-1.721l-3.231.865zM27.087 12.945l-11.034 2.957c.426.981.865 1.908 1.307 2.775l10.509-2.816-.782-2.916zM36.143 3.164A43.218 43.218 0 0034.645.126 32.212 32.212 0 0031.89 0c-.237 0-.47.013-.705.018a36.704 36.704 0 012.068 3.92l2.89-.774zM24.067 28.538c-.007-.007.477.51.782.806 1.491 1.444 2.69 2.418 1.792 1.63l4.889-1.311-.781-2.915-6.682 1.79zM36.983 25.077l2.015-.54 1.021-.273c.139-1.435.208-2.881.157-4.334v-.012l-.188.051-2.753.737a29.92 29.92 0 01-.252 4.371"/><path fill="#FFF" d="M52.482 51.372a78.382 78.382 0 00-2.459-2.498c-.467-.455-.939-.91-1.418-1.356l-.058-.054a84.405 84.405 0 00-1.476-1.344l-.004-.003v-.001l-.303-.267c-.266-.234-.531-.46-.797-.688-.09-.076-.181-.156-.27-.232-.111-.094-.223-.194-.334-.287l-.588-.495-.024-.017c-.013-.008-.021-.008-.022-.008l-2.011.539-6.655 1.783.008.034.754 2.813.004.014.006.021.009.034 7.241-1.941a83.017 83.017 0 013.641 3.33l-20.8 5.572a35.94 35.94 0 011.8-5.999c1.361-3.387 3.249-6.886 5.097-10.282h.002l.777-1.434.193-.359.316-.586.125-.236.464-.865.333-.633a93.947 93.947 0 00.832-1.623c.177-.352.345-.698.51-1.041.085-.176.169-.354.251-.527a46.8 46.8 0 00.476-1.057c.067-.154.137-.309.201-.46.152-.361.29-.712.424-1.06.051-.136.107-.273.155-.407.132-.362.245-.715.353-1.064.035-.111.076-.225.106-.335.132-.453.243-.897.325-1.326.02-.107.174-.907-.002.007.113-.588.195-1.182.268-1.78v-.003c.041-.326.079-.665.111-.993l-1.046.28-8.25 2.211.781 2.915 4.701-1.259-.08.236c-.121.334-.254.679-.396 1.031-.072.179-.141.353-.218.536a46.274 46.274 0 01-.752 1.661 72.617 72.617 0 01-.87 1.752l-.264.508a140.723 140.723 0 01-.859 1.631c-2.521-1.764-5.31-3.866-7.941-6.415a25.617 25.617 0 01-1.657-1.783c-.06-.069-.119-.134-.179-.206a38.806 38.806 0 01-1.819-2.351l18.989-5.088-.082-1.21a42.004 42.004 0 00-.231-2.37l-.002-.009-.011-.074a43.345 43.345 0 00-.315-2.029c-.026-.147-.056-.292-.082-.438a46.796 46.796 0 00-.384-1.839c-.008-.029-.012-.057-.02-.086a46.987 46.987 0 00-.511-1.987l-1.503.403-1.339.359-8.617 2.309.782 2.916 8.546-2.29c.272 1.309.501 2.686.646 4.131l-17.595 4.714c-1.573-2.529-3.492-6.121-4.911-10.416l22.703-6.075c-.048-.129-.093-.262-.143-.389-.15-.394-.301-.783-.45-1.142-.101-.246-.2-.496-.306-.737l-.205-.496-.012.003-22.438 6.012a36.288 36.288 0 01-.613-3.041 32.065 32.065 0 00-2.588 2.101c.12.567.236 1.134.38 1.696l.395 1.454c.015.048.031.093.045.142l.001.002c.157.527.329 1.048.504 1.568.076.231.151.464.231.69.04.114.083.225.125.338.076.207.152.415.231.622v.001c.092.246.188.483.281.724a53.356 53.356 0 001.674 3.783c.182.371.363.749.545 1.101l.002.003.05.099.027.052a57.522 57.522 0 00.969 1.769l.115.202.065.111a50.516 50.516 0 00.945 1.566l.145.23.002.004c.112.176.229.366.336.53l.584.895.016-.004c.174.254.349.495.523.741.168.236.334.47.502.697.034.046.068.089.101.135.139.185.277.369.415.548.183.237.364.466.545.691.112.14.224.277.335.413.041.05.081.103.122.151.312.373.622.731.927 1.067l.014.015c.197.216.386.401.579.601.157.161.316.336.47.487.031.031.065.069.096.099.661.64 1.329 1.243 1.997 1.827.091.079.181.162.271.24.256.22.518.424.775.64.51.424 1.018.848 1.523 1.242.307.24.609.463.913.692l.155.116c.396.299.791.599 1.18.882.485.352.971.696 1.458 1.036.102.072.211.154.313.224-1.934 3.556-3.929 7.229-5.39 10.865-1.861 4.631-2.647 9.465-2.791 13.348a31.71 31.71 0 002.925.679c.022-1.139.101-2.392.267-3.736l26.94-7.217c-.281-.312-.564-.62-.853-.926"/></svg>